# 3ds Max Wavefront OBJ Exporter v0.97b - (c)2007 guruware
# File Created: 15.05.2013 16:27:47

#
# object Plane01
#

v  -4.0000 0.0000 0.5000
v  -4.0000 0.0000 1.0000
v  4.0000 0.0000 0.5000
v  4.0000 0.0000 1.0000
v  -4.0000 0.0000 -0.0000
v  4.0000 0.0000 -0.0000
v  -4.0000 0.0000 -0.5000
v  4.0000 0.0000 -0.5000
v  -4.0000 0.0000 -1.0000
v  4.0000 0.0000 -1.0000
# 10 vertices

vn 0.0000 1.0000 -0.0000
# 1 vertex normals

vt 0.0000 0.2500 0.0000
vt 0.0000 0.0000 0.0000
vt 1.0000 0.2500 0.0000
vt 1.0000 0.0000 0.0000
vt 0.0000 0.5000 0.0000
vt 1.0000 0.5000 0.0000
vt 0.0000 0.7500 0.0000
vt 1.0000 0.7500 0.0000
vt 0.0000 1.0000 0.0000
vt 1.0000 1.0000 0.0000
# 10 texture coords

g Plane01
f 1/1/1 2/2/1 3/3/1 
f 4/4/1 3/3/1 2/2/1 
f 5/5/1 1/1/1 6/6/1 
f 3/3/1 6/6/1 1/1/1 
f 7/7/1 5/5/1 8/8/1 
f 6/6/1 8/8/1 5/5/1 
f 9/9/1 7/7/1 10/10/1 
f 8/8/1 10/10/1 7/7/1 
# 8 faces

