# 3ds Max Wavefront OBJ Exporter v0.97b - (c)2007 guruware
# File Created: 28.02.2013 11:47:08

#
# object dodecahedron
#

v  0.00 0.34 0.94
v  0.00 -0.34 0.94
v  0.58 -0.58 0.58
v  0.58 0.58 0.58
v  0.94 0.00 0.34
v  0.94 0.00 -0.34
v  0.58 0.58 -0.58
v  0.34 0.94 -0.00
v  0.34 -0.94 -0.00
v  0.58 -0.58 -0.58
v  -0.58 -0.58 0.58
v  -0.34 -0.94 -0.00
v  -0.58 0.58 0.58
v  -0.94 0.00 0.34
v  -0.34 0.94 -0.00
v  0.00 0.34 -0.94
v  -0.58 0.58 -0.58
v  -0.94 0.00 -0.34
v  -0.58 -0.58 -0.58
v  0.00 -0.34 -0.94
# 20 vertices

vn 0.54 -0.01 0.84
vn 0.85 0.53 -0.00
vn 0.84 -0.54 -0.01
vn 0.00 -0.83 0.55
vn -0.53 0.00 0.85
vn -0.01 0.84 0.54
vn -0.01 0.84 -0.54
vn -0.84 0.54 0.01
vn -0.85 -0.53 -0.00
vn -0.01 -0.84 -0.54
vn 0.55 0.00 -0.83
vn -0.53 0.00 -0.85
# 12 vertex normals

vt 0.60 0.64 0.00
vt 0.60 0.36 0.00
vt 0.70 0.25 0.00
vt 0.70 0.75 0.00
vt 0.76 0.50 0.00
vt 0.84 0.50 0.00
vt 0.90 0.75 0.00
vt 0.80 1.00 0.00
vt 0.80 0.00 0.00
vt 0.90 0.25 0.00
vt 0.50 0.25 0.00
vt 0.40 0.00 0.00
vt 0.50 0.75 0.00
vt 0.44 0.50 0.00
vt 0.40 1.00 0.00
vt 0.10 0.75 0.00
vt 0.20 0.64 0.00
vt 0.30 0.75 0.00
vt 0.00 1.00 0.00
vt 0.36 0.50 0.00
vt 0.30 0.25 0.00
vt 0.00 0.00 0.00
vt 0.10 0.25 0.00
vt 0.20 0.36 0.00
vt 1.00 0.36 0.00
vt 1.00 0.64 0.00
# 26 texture coords

g dodecahedron
f 1/1/1 2/2/1 3/3/1 
f 4/4/1 1/1/1 3/3/1 
f 5/5/1 4/4/1 3/3/1 
f 5/5/2 6/6/2 7/7/2 
f 5/5/2 7/7/2 8/8/2 
f 4/4/2 5/5/2 8/8/2 
f 3/3/3 9/9/3 10/10/3 
f 3/3/3 10/10/3 6/6/3 
f 5/5/3 3/3/3 6/6/3 
f 11/11/4 12/12/4 9/9/4 
f 2/2/4 11/11/4 9/9/4 
f 3/3/4 2/2/4 9/9/4 
f 13/13/5 14/14/5 11/11/5 
f 1/1/5 13/13/5 11/11/5 
f 2/2/5 1/1/5 11/11/5 
f 8/8/6 15/15/6 13/13/6 
f 4/4/6 8/8/6 13/13/6 
f 1/1/6 4/4/6 13/13/6 
f 7/16/7 16/17/7 17/18/7 
f 7/16/7 17/18/7 15/15/7 
f 8/19/7 7/16/7 15/15/7 
f 18/20/8 14/14/8 13/13/8 
f 17/18/8 18/20/8 13/13/8 
f 15/15/8 17/18/8 13/13/8 
f 19/21/9 12/12/9 11/11/9 
f 18/20/9 19/21/9 11/11/9 
f 14/14/9 18/20/9 11/11/9 
f 9/22/10 12/12/10 19/21/10 
f 10/23/10 9/22/10 19/21/10 
f 20/24/10 10/23/10 19/21/10 
f 10/10/11 20/25/11 16/26/11 
f 6/6/11 10/10/11 16/26/11 
f 7/7/11 6/6/11 16/26/11 
f 16/17/12 20/24/12 19/21/12 
f 16/17/12 19/21/12 18/20/12 
f 17/18/12 16/17/12 18/20/12 
# 36 faces

